<svg width="16" height="16" viewBox="0 0 16 16" fill="none" xmlns="http://www.w3.org/2000/svg">
<path d="M8.10573 7.24927C8.03906 7.2426 7.95906 7.2426 7.88573 7.24927C6.29906 7.19594 5.03906 5.89594 5.03906 4.29594C5.03906 2.6626 6.35906 1.33594 7.99906 1.33594C9.6324 1.33594 10.9591 2.6626 10.9591 4.29594C10.9524 5.89594 9.6924 7.19594 8.10573 7.24927Z" stroke="#878787" stroke-linecap="round" stroke-linejoin="round"/>
<path d="M4.7725 9.70406C3.15917 10.7841 3.15917 12.5441 4.7725 13.6174C6.60583 14.8441 9.6125 14.8441 11.4458 13.6174C13.0592 12.5374 13.0592 10.7774 11.4458 9.70406C9.61917 8.48406 6.6125 8.48406 4.7725 9.70406Z" stroke="#878787" stroke-linecap="round" stroke-linejoin="round"/>
</svg>
